<svg width="212" height="167" viewBox="0 0 212 167" fill="none" xmlns="http://www.w3.org/2000/svg">
<path d="M76.927 164.542C127.778 173.341 154.019 155.727 154.153 155.203C155.576 154.363 157.013 153.532 158.36 152.579C160.505 151.061 162.594 149.464 164.678 147.864C165.705 147.075 166.709 146.245 167.648 145.354C168.323 144.713 168.821 143.887 169.487 143.236C171.018 141.742 172.663 140.364 174.153 138.831C176.828 136.08 179.461 133.285 182.039 130.442C184.122 128.145 186.128 125.776 188.111 123.391C189.489 121.733 190.771 119.995 192.092 118.29C193.192 116.87 194.385 115.511 195.357 114.008C196.506 112.231 197.511 110.354 198.489 108.474C199.495 106.538 200.48 104.582 201.317 102.569C202.318 100.16 203.659 97.8677 203.766 95.1285C203.853 92.9057 204.236 90.6959 204.364 88.4731C204.515 85.8603 204.205 83.2668 203.74 80.6944C203.339 78.4735 202.765 76.2898 201.676 74.3134C200.527 72.2292 199.28 70.1902 197.945 68.221C196.342 65.8566 194.427 63.7701 192.094 62.0678C189.916 60.4787 187.543 59.2855 185.068 58.2816C182.755 57.3429 180.399 56.5074 178.077 55.5903C176.744 55.064 175.447 54.4448 174.12 53.9044C171.968 53.0285 169.781 52.2348 167.649 51.3127C164.325 49.875 161.381 47.8933 158.956 45.1425C157.376 43.3511 155.66 41.68 153.986 39.9737C152.338 38.2947 150.651 36.6546 149.013 34.9664C148.326 34.2578 147.777 33.4095 147.064 32.7314C146.01 31.7285 144.879 30.8046 143.756 29.877C142.645 28.9599 141.598 27.9115 140.358 27.218C137.616 25.6847 134.894 24.0934 131.833 23.1956C129.175 22.4158 126.586 21.4698 123.818 21.0107C120.959 20.5366 118.121 20.0978 115.222 20.1012C111.505 20.1055 107.788 20.0919 104.071 20.1096C103.157 20.114 102.231 20.1342 101.331 20.2777C98.908 20.6644 96.4905 21.0946 94.0805 21.5593C92.1571 21.9301 90.2457 22.3652 88.334 22.7943L88.2668 22.8093C86.8731 23.1221 85.4779 23.4352 84.1008 23.8121C81.7018 24.4685 79.3125 25.1616 76.927 25.8659C73.6685 26.8278 70.775 28.7107 67.4703 29.5915C65.7111 30.0604 64.017 30.8021 62.3285 31.5053C59.4306 32.7122 56.5514 33.9655 53.6821 35.2394C52.3475 35.8319 51.0964 36.6321 49.7336 37.1379C46.9871 38.1574 44.4242 39.5191 41.9976 41.127C40.0076 42.4456 38.1481 43.961 36.1764 45.3093C33.4211 47.1935 30.8026 49.2271 28.7145 51.8595C27.2193 53.7444 25.6478 55.5933 24.3752 57.6251C22.5771 60.4958 20.9303 63.4727 19.3924 66.4932C17.9548 69.3168 16.7131 72.243 15.4435 75.1497C14.6111 77.0556 13.782 78.9737 13.1334 80.9466C12.3781 83.244 11.8836 85.6267 11.1588 87.9354C10.5792 89.7816 10.3657 91.6515 10.3865 93.5639C10.3921 94.0787 10.5269 94.5919 10.5334 95.1067C10.5974 100.127 10.6325 105.147 10.7133 110.167C10.7277 111.063 10.8867 111.96 11.0272 112.849C11.2729 114.405 11.5442 115.956 11.8271 117.505C12.0632 118.798 12.2259 120.116 12.6051 121.367C13.6946 124.961 15.096 128.437 16.9604 131.705C18.1881 133.856 19.4623 135.982 20.7683 138.087C21.1749 138.742 21.7595 139.285 22.2525 139.888C23.2504 141.108 24.0261 142.161 25.249 143.544C39.6989 159.881 60.158 161.64 76.927 164.542Z" fill="#C1F3CE" fill-opacity="0.34"/>
<path d="M5.64334 118.81C4.60796 116.366 3.79588 113.943 3.37756 111.378C3.04525 109.341 2.50024 107.339 2.12949 105.307C1.93026 104.215 1.93413 103.087 1.78438 101.984C1.52688 100.087 1.22135 98.1972 0.935072 96.3043C0.793901 95.3708 0.608558 94.4418 0.516014 93.5036C0.17954 90.0927 -0.0860159 86.677 0.0260475 83.2436C0.0851547 81.4329 0.0172426 79.6088 0.216904 77.8143C0.469688 75.5422 0.954905 73.297 1.30446 71.0347C1.55104 69.4388 1.68258 67.8238 1.96517 66.2352C2.44384 63.5443 3.2638 60.9563 4.64806 58.5832C5.25636 57.5404 5.94652 56.5453 6.60762 55.5339C7.05425 54.8506 8.45389 54.2529 9.05637 54.3819C9.8837 54.559 10.1828 55.1697 10.1088 55.8451C9.96559 57.1515 9.74991 58.4645 9.40469 59.731C8.69101 62.3495 7.78269 64.9167 7.12749 67.5483C6.64974 69.4673 6.43916 71.454 6.12725 73.4134C5.74237 75.8311 5.36654 78.2504 5.00777 80.6721C4.91264 81.3142 4.87266 81.9669 4.84533 82.6164C4.77858 84.2029 4.74058 85.7906 4.67824 87.3774C4.63695 88.4286 4.49108 89.4824 4.53648 90.5288C4.64653 93.0661 4.82092 95.6012 5.00864 98.1342C5.13113 99.787 5.28963 101.439 5.49327 103.083C5.65574 104.396 5.91245 105.696 6.12428 107.002C6.34033 108.335 6.5033 109.678 6.78121 110.997C7.03308 112.193 7.37385 113.373 7.73613 114.541C8.67888 117.581 9.63406 120.617 10.6246 123.641C11.3662 125.905 12.1763 128.146 12.9441 130.401C13.2821 131.394 13.0706 131.973 12.3084 131.977C11.7012 131.98 11.2102 131.592 10.9418 131.013C10.7129 130.519 10.5222 130.007 10.2949 129.512C9.22951 127.191 8.13519 124.884 7.0967 122.552C6.56309 121.353 6.12474 120.112 5.64334 118.81Z" fill="#C1F3CE" fill-opacity="0.34"/>
<path d="M191.514 35.5188C189.356 36.0553 187.291 36.6538 185.195 37.1072C183.703 37.43 182.141 37.8426 180.659 37.6995C178.825 37.5222 176.878 38.0814 175.15 37.1156C174.012 36.4798 172.9 35.7801 171.851 35.0082C169.89 33.5665 168.6 31.5742 167.542 29.4187C166.401 27.0973 165.682 24.6359 165.21 22.1033C165.03 21.1422 164.848 20.1475 164.909 19.1835C165 17.7359 165.284 16.2984 165.524 14.863C165.822 13.0812 166.45 11.4052 167.199 9.76697C168.228 7.51499 170.073 6.03232 172.002 4.6508C174.261 3.0336 176.728 1.76637 179.383 0.977739C180.951 0.511966 182.614 0.344273 184.245 0.121516C187.398 -0.309163 190.453 0.486917 193.445 1.22711C197.734 2.28787 200.191 5.44249 201.428 9.52228C202.106 11.7566 202.443 14.0964 202.9 16.3954C203.153 17.6666 203.443 18.9457 203.515 20.2326C203.574 21.2782 203.413 22.356 203.212 23.3928C202.819 25.422 201.958 27.2731 200.825 28.9945C199.9 30.399 198.576 31.4033 197.308 32.4567C195.614 33.8642 193.614 34.7138 191.514 35.5188Z" fill="#C1F3CE" fill-opacity="0.34"/>
<path d="M199.389 51.0141C198.876 50.339 198.317 49.7483 197.965 49.052C197.766 48.6581 197.771 48.0397 197.928 47.6128C198.206 46.8563 198.999 46.9001 199.576 47.0678C200.178 47.243 200.768 47.6324 201.238 48.0656C203.737 50.3719 205.937 52.9612 207.801 55.795C209.378 58.1923 210.611 60.8006 211.049 63.6861C211.336 65.5704 211.587 67.4698 211.684 69.3711C211.864 72.9161 212.003 76.4674 212 80.016C211.998 83.0292 211.491 85.9841 210.263 88.7761C209.859 89.6961 208.503 90.8829 207.369 90.8169C206.477 90.765 205.607 90.1148 205.631 89.2267C205.664 87.9357 205.817 86.6432 205.993 85.3616C206.197 83.8768 206.502 82.4062 206.724 80.9236C206.915 79.6542 207.163 78.3786 207.187 77.102C207.226 74.9808 207.231 72.8436 207.015 70.7376C206.811 68.7571 206.353 66.7967 205.915 64.8485C205.395 62.5412 204.854 60.2193 203.669 58.1438C202.305 55.7527 200.847 53.4152 199.389 51.0141Z" fill="#C1F3CE" fill-opacity="0.34"/>
<path d="M20.2965 42.4843C19.6413 43.2299 18.9989 43.9135 18.4164 44.6451C16.9761 46.4544 15.5675 48.289 14.1368 50.106C13.7186 50.637 13.1437 50.972 12.5071 50.6518C11.8753 50.3341 11.9621 49.6331 11.9967 49.0328C12.0768 47.6446 12.7821 46.4869 13.5505 45.4213C15.1633 43.1846 16.8609 41.0012 18.8704 39.1005C20.971 37.1137 23.1807 35.2612 25.5983 33.6543C26.8996 32.7893 28.1513 31.8714 29.7232 31.5959C30.0706 31.535 30.6906 31.5618 30.7666 31.7339C30.9169 32.0746 30.9269 32.6544 30.7227 32.9391C30.2785 33.5586 29.6894 34.0843 29.1128 34.5954C28.1062 35.4877 27.0416 36.3148 26.0422 37.2148C24.1252 38.941 22.2368 40.6991 20.2965 42.4843Z" fill="#C1F3CE" fill-opacity="0.34"/>
</svg>
